# xmcd
#
# Track frame offsets:
#	150
#	12137
#	23259
#	33255
#	40993
#	54523
#	65037
#	74493
#	85979
#	95344
#	112701
#	124209
#	136472
#	148449
#	161099
#	174533
#	183210
#	193838
#	205386
#	217875
#	226953
#	235168
#
# Disc length: 3516 seconds
#
# Revision: 1
# Processed by: cddbd v1.4PL0 Copyright (c) Steve Scherf et al.
# Submitted via: audiograbber 1.80
#
DISCID=360dba16
DTITLE=Hujässler - hochprozentix
DYEAR=1900
DGENRE=
TTITLE0=Ueli Moser - Us em Hämp gribne
TTITLE1=Markus Flückiger - buuh und baah
TTITLE2=Leo Kälin - Urnerbode-Stimmig
TTITLE3=Hans Hess - De Grüenhalde-Puur
TTITLE4=Ernst Müller - De Schwimmbad-Hans
TTITLE5=Markus Flückiger - s'Büro Buseli
TTITLE6=Fritz Dünner - gschmöcks dä Kröpsch?
TTITLE7=Dani Häusler - flät uflätig
TTITLE8=Kasi Geisser - Der lustige Vorstädtler-Schmied
TTITLE9=Jost Ribary jun. - Hergiswiler Jassfraue
TTITLE10=Hanspeter Kamer - Holzbock-Schottisch
TTITLE11=Dani Häusler - Goldau im Dunscht
TTITLE12=Trad arr. Paul Bürgler - Bim Sity-Domini
TTITLE13=Leo Kälin - Auf froher Fahrt
TTITLE14=Ueli Mooser - kanonenvoll
TTITLE15=Markus Flückiger - Retissimo
TTITLE16=Fritz Dünner - labambälä lah
TTITLE17=Fritz Dünner - s'Rebers Werni
TTITLE18=Markus Flückiger - Anti-Trööti-Ländler
TTITLE19=Dani Häusler - 25 Jahr "Chnode"
TTITLE20=Dani Häusler - stümpel macht dümpel
TTITLE21=Domenic Janett - Mazurka
EXTD=
EXTT0=
EXTT1=
EXTT2=
EXTT3=
EXTT4=
EXTT5=
EXTT6=
EXTT7=
EXTT8=
EXTT9=
EXTT10=
EXTT11=
EXTT12=
EXTT13=
EXTT14=
EXTT15=
EXTT16=
EXTT17=
EXTT18=
EXTT19=
EXTT20=
EXTT21=
PLAYORDER=
